<?xml version="1.0" encoding="utf-8"?>
<!-- Generator: Adobe Illustrator 25.4.1, SVG Export Plug-In . SVG Version: 6.00 Build 0)  -->
<svg version="1.1" id="Layer_1" xmlns="http://www.w3.org/2000/svg" xmlns:xlink="http://www.w3.org/1999/xlink" x="0px" y="0px"
	 viewBox="0 0 1080 1080" style="enable-background:new 0 0 1080 1080;" xml:space="preserve">
<style type="text/css">
	.st0{fill:url(#SVGID_1_);}
	.st1{fill:url(#SVGID_00000044150518098759710750000017303425652697437623_);}
	.st2{fill:none;}
	.st3{font-family:'Bauhaus93';}
	.st4{font-size:20.3258px;}
	.st5{fill:#2B2E4A;}
	.st6{fill:url(#SVGID_00000116927697761043046980000005858493900670037904_);}
	.st7{fill:url(#SVGID_00000133519396897684164950000017702497467112056489_);}
	.st8{fill-rule:evenodd;clip-rule:evenodd;fill:#A54525;}
	.st9{font-family:'Poppins-ExtraBold';}
	.st10{font-size:81.6196px;}
</style>
<path d="M559.5,701.6C559.5,701.5,559.5,701.6,559.5,701.6L559.5,701.6z"/>
<linearGradient id="SVGID_1_" gradientUnits="userSpaceOnUse" x1="315.7951" y1="432.665" x2="351.0052" y2="432.665" gradientTransform="matrix(1 0 0 -1 0 1080)">
	<stop  offset="0" style="stop-color:#474747"/>
	<stop  offset="1" style="stop-color:#337988"/>
</linearGradient>
<rect x="315.8" y="540" class="st0" width="35.2" height="214.7"/>
<linearGradient id="SVGID_00000001650820496864833610000009908333909146798754_" gradientUnits="userSpaceOnUse" x1="126.2798" y1="525.5601" x2="796.85" y2="525.5601" gradientTransform="matrix(1 0 0 -1 0 1080)">
	<stop  offset="0" style="stop-color:#474747"/>
	<stop  offset="1" style="stop-color:#337988"/>
</linearGradient>
<path style="fill:url(#SVGID_00000001650820496864833610000009908333909146798754_);" d="M126.3,649.7
	c99.6-167.4,448.6-222.3,670.6-174.9l-16.5,41.8c-182.5-31.3-507.6-46.4-649.5,133.8L126.3,649.7z"/>
<text transform="matrix(1 0 0 1 614.276 434.0768)" class="st3 st4">r</text>
<g>
	<path class="st5" d="M482.3,754.7l-49.4-85.9H406v85.9h-35.2V540H445c16.5,0,30.4,2.9,41.9,8.6c11.4,5.8,20,13.5,25.6,23.2
		c5.7,9.7,8.5,20.5,8.5,32.4c0,14-4.1,26.7-12.2,38.1c-8.1,11.4-20.6,19.2-37.5,23.3l53.1,89H482.3z M406,640.7H445
		c13.2,0,23.1-3.3,29.8-9.9c6.7-6.6,10-15.4,10-26.6c0-11.1-3.3-19.8-9.9-26.1c-6.6-6.3-16.6-9.4-30-9.4H406V640.7z"/>
</g>
<g>
	
		<linearGradient id="SVGID_00000170988198565740517160000017917211001450372773_" gradientUnits="userSpaceOnUse" x1="757.54" y1="398.095" x2="842.16" y2="398.095" gradientTransform="matrix(1 0 0 -1 0 1080)">
		<stop  offset="0" style="stop-color:#474747"/>
		<stop  offset="1" style="stop-color:#337988"/>
	</linearGradient>
	<path style="fill:url(#SVGID_00000170988198565740517160000017917211001450372773_);" d="M775.3,627.2v69c0,8.2,2.2,14.4,6.5,18.5
		c4.3,4.2,10.3,6.2,18,6.2c7.8,0,13.8-2.1,18.2-6.2c4.3-4.2,6.5-10.3,6.5-18.5v-69h17.8v68.7c0,8.8-1.9,16.3-5.8,22.4
		c-3.8,6.1-9,10.7-15.4,13.7s-13.6,4.5-21.3,4.5s-14.9-1.5-21.3-4.5c-6.4-3-11.5-7.6-15.2-13.7s-5.6-13.6-5.6-22.4v-68.7
		L775.3,627.2L775.3,627.2z"/>
	
		<linearGradient id="SVGID_00000031889823925095077810000000237183859480664225_" gradientUnits="userSpaceOnUse" x1="865.22" y1="398.64" x2="979.28" y2="398.64" gradientTransform="matrix(1 0 0 -1 0 1080)">
		<stop  offset="0" style="stop-color:#474747"/>
		<stop  offset="1" style="stop-color:#337988"/>
	</linearGradient>
	<path style="fill:url(#SVGID_00000031889823925095077810000000237183859480664225_);" d="M979.3,627.2v108.3h-17.8v-74.2l-33,74.2
		h-12.3L883,661.3v74.2h-17.8V627.2h19.2l38,84.9l37.9-84.9H979.3z"/>
</g>
<path class="st5" d="M981.1,736.5H814.6H786h-34.8L738,674.6c-0.8-4-3.9-6.8-7.5-6.8c0,0,0,0,0,0c-3.5,0-6.6,2.8-7.5,6.8
	l-25.7,120.5l-23.2-102.9c-0.8-3.8-3.7-6.5-7.1-6.7s-6.4,2.2-7.6,5.8L639.9,753l-15.1-43c-1.1-3.2-3.7-5.3-6.6-5.6s-5.7,1.5-7.2,4.5
	l-13.6,27.6h-95.8c-4.2,0-7.7,4-7.7,9s3.4,9,7.7,9H602c2.8,0,5.3-1.7,6.7-4.5l8-16.2l16.6,47.4c1.2,3.4,4.1,5.6,7.2,5.6
	c3.2-0.1,6-2.4,7.1-5.8l18-56.7l24.7,109.4c0.9,3.9,3.9,6.7,7.4,6.7c0,0,0,0,0,0c3.5,0,6.6-2.8,7.4-6.8l25.5-119.4l7.1,33.5
	c0.8,4,3.9,6.8,7.5,6.8H786h28.6h166.5V736.5z"/>
<g>
	<path class="st8" d="M728.2,631.9c-7.3,0-13.3,5.9-13.3,13.3s5.9,13.3,13.3,13.3s13.3-5.9,13.3-13.3S735.5,631.9,728.2,631.9z
		 M736,647.4c0,0.4-0.3,0.7-0.7,0.7h-4.2v4.2c0,0.4-0.3,0.7-0.7,0.7h-4.6c-0.4,0-0.7-0.3-0.7-0.7v-4.2H721c-0.4,0-0.7-0.3-0.7-0.7
		v-4.6c0-0.4,0.3-0.7,0.7-0.7h4.2V638c0-0.4,0.3-0.7,0.7-0.7h4.6c0.4,0,0.7,0.3,0.7,0.7v4.2h4.2c0.4,0,0.7,0.3,0.7,0.7V647.4z"/>
</g>
<g>
	<path class="st8" d="M619.1,667.8c-7.3,0-13.3,5.9-13.3,13.3s5.9,13.3,13.3,13.3s13.3-5.9,13.3-13.3S626.4,667.8,619.1,667.8z
		 M627,683.3c0,0.4-0.3,0.7-0.7,0.7h-4.2v4.2c0,0.4-0.3,0.7-0.7,0.7h-4.6c-0.4,0-0.7-0.3-0.7-0.7v-4.2h-4.2c-0.4,0-0.7-0.3-0.7-0.7
		v-4.6c0-0.4,0.3-0.7,0.7-0.7h4.2v-4.2c0-0.4,0.3-0.7,0.7-0.7h4.6c0.4,0,0.7,0.3,0.7,0.7v4.2h4.2c0.4,0,0.7,0.3,0.7,0.7V683.3z"/>
</g>
<text transform="matrix(1 0 0 1 797.5969 528.203)" class="st5 st9 st10">MBS</text>
</svg>
